<svg id="logosandtypes_com" xmlns="http://www.w3.org/2000/svg" viewBox="0 0 150 150"><path d="M0 0h150v150H0V0z" fill="none"/><linearGradient id="a" gradientUnits="userSpaceOnUse" x1="100.8654" y1="5.3519" x2="120.1795" y2="63.2943" gradientTransform="matrix(1 0 0 -1 -47.2 99.25)"><stop offset="0" stop-color="#90072f"/><stop offset=".01" stop-color="#930730"/><stop offset=".19" stop-color="#b2043b"/><stop offset=".37" stop-color="#cb0244"/><stop offset=".56" stop-color="#dc014a"/><stop offset=".76" stop-color="#e7004e"/><stop offset="1" stop-color="#ea004f"/></linearGradient><path d="M91.2 37.5c2.2 0 4.4.2 6.5.7-6.3-5-14.1-7.7-22.1-7.7-20.4 0-37 17.3-37 38.6 0 15.9 9.2 29.5 22.3 35.4-4.2-6.9-7.3-15.3-7.3-24.4-.1-23.5 17.1-42.6 37.6-42.6z" fill="url(#a)"/><linearGradient id="b" gradientUnits="userSpaceOnUse" x1="119.0171" y1="23.5956" x2="149.9197" y2="42.2659" gradientTransform="matrix(1 0 0 -1 -47.2 99.25)"><stop offset="0" stop-color="#90072f"/><stop offset=".01" stop-color="#930730"/><stop offset=".19" stop-color="#b2043b"/><stop offset=".37" stop-color="#cb0244"/><stop offset=".56" stop-color="#dc014a"/><stop offset=".76" stop-color="#e7004e"/><stop offset="1" stop-color="#ea004f"/></linearGradient><path d="M91.4 42.9c5.3 3 6.3 6.4 6.3 12.2 0 9.2-8.9 16.7-20 16.7-6.3-.1-12.3-2.9-16.3-7.8 1.2 11.7 11.2 20.6 23 20.5 13.1 0 23.7-9.8 23.7-21.8.1-10.8-5.4-18.1-16.7-19.8z" fill="url(#b)"/><linearGradient id="c" gradientUnits="userSpaceOnUse" x1="155.2724" y1="1.0434" x2="113.4251" y2=".3996" gradientTransform="matrix(1 0 0 -1 -47.2 99.25)"><stop offset="0" stop-color="#90072f"/><stop offset=".01" stop-color="#930730"/><stop offset=".19" stop-color="#b2043b"/><stop offset=".37" stop-color="#cb0244"/><stop offset=".56" stop-color="#dc014a"/><stop offset=".76" stop-color="#e7004e"/><stop offset="1" stop-color="#ea004f"/></linearGradient><path d="M85.8 99.6c-10.2 0-18.8-4.7-25.5-11.2 3.5 13 12.2 21.9 24.9 21.9 13.2 0 26.9-9.8 29.8-23.8-6.7 7.6-18 13.1-29.2 13.1z" fill="url(#c)"/><linearGradient id="d" gradientUnits="userSpaceOnUse" x1="89.2562" y1="-9.9047" x2="82.1744" y2="60.9137" gradientTransform="matrix(1 0 0 -1 -47.2 99.25)"><stop offset="0" stop-color="#90072f"/><stop offset=".01" stop-color="#930730"/><stop offset=".19" stop-color="#b2043b"/><stop offset=".37" stop-color="#cb0244"/><stop offset=".56" stop-color="#dc014a"/><stop offset=".76" stop-color="#e7004e"/><stop offset="1" stop-color="#ea004f"/></linearGradient><path d="M24.4 71.5c0-23.3 16.4-43.7 39.2-50.9-7.6.5-15 2.3-21.8 5.5C14.4 38.9 1.3 68.6 12.4 92.7c7.9 17.1 25.9 26.7 45.5 26.3-19.8-8.5-33.5-26.2-33.5-47.5z" fill="url(#d)"/><linearGradient id="e" gradientUnits="userSpaceOnUse" x1="133.9287" y1="84.1595" x2="175.776" y2="37.8056" gradientTransform="matrix(1 0 0 -1 -47.2 99.25)"><stop offset="0" stop-color="#90072f"/><stop offset=".01" stop-color="#930730"/><stop offset=".19" stop-color="#b2043b"/><stop offset=".37" stop-color="#cb0244"/><stop offset=".56" stop-color="#dc014a"/><stop offset=".76" stop-color="#e7004e"/><stop offset="1" stop-color="#ea004f"/></linearGradient><path d="M91.3 11.7C80 9.8 68.4 10.4 57.4 13.6h2.5c35.9 0 65 21.9 65 49 0 7.1-2 14.1-5.7 20.2 11.3-4.9 19.2-13.1 21.1-23.4 3.5-20.6-18.4-42.3-49-47.7z" fill="url(#e)"/><linearGradient id="f" gradientUnits="userSpaceOnUse" x1="176.4213" y1="-6.1179" x2="105.6029" y2="-33.1577" gradientTransform="matrix(1 0 0 -1 -47.2 99.25)"><stop offset="0" stop-color="#90072f"/><stop offset=".01" stop-color="#930730"/><stop offset=".19" stop-color="#b2043b"/><stop offset=".37" stop-color="#cb0244"/><stop offset=".56" stop-color="#dc014a"/><stop offset=".76" stop-color="#e7004e"/><stop offset="1" stop-color="#ea004f"/></linearGradient><path d="M61.6 128.6c-13.9-1.1-33.1-8.8-30.9-6.8 28.1 25.7 69.4 26.2 92.3 1.2 11.2-12.2 14.5-25 13.1-41.3-9.8 33.4-39.8 49.7-74.5 46.9z" fill="url(#f)"/></svg>